<?xml version="1.0" standalone="no"?>
<!DOCTYPE svg PUBLIC "-//W3C//DTD SVG 20010904//EN"
 "http://www.w3.org/TR/2001/REC-SVG-20010904/DTD/svg10.dtd">
<svg version="1.0" xmlns="http://www.w3.org/2000/svg"
 width="300.000000pt" height="300.000000pt" viewBox="0 0 300.000000 300.000000"
 preserveAspectRatio="xMidYMid meet">
<metadata>
Created by potrace 1.14, written by Peter Selinger 2001-2017
</metadata>
<g transform="translate(0.000000,300.000000) scale(0.100000,-0.100000)"
fill="#000000" stroke="none">
<path d="M1295 2876 c-81 -43 -101 -59 -244 -199 -88 -88 -134 -143 -207 -253
-51 -77 -98 -151 -104 -165 -5 -13 -14 -31 -20 -39 -35 -52 -120 -251 -130
-304 -11 -61 -12 -62 -45 -62 -98 0 -231 -123 -313 -289 -96 -194 -149 -410
-158 -644 -8 -197 3 -278 55 -387 47 -99 95 -162 178 -234 64 -56 215 -144
262 -153 14 -3 44 -12 66 -21 30 -11 81 -15 208 -16 l169 0 -2 -43 c-3 -63 -2
-67 20 -67 17 0 20 7 20 44 0 25 4 48 10 51 5 3 60 -2 122 -11 129 -18 432
-28 458 -14 10 5 21 5 26 0 5 -5 39 6 82 27 41 20 89 37 108 39 l34 3 0 -69
c0 -69 1 -70 26 -70 l26 0 -7 76 -8 76 74 -6 c102 -7 112 -9 127 -23 7 -7 19
-10 27 -7 7 3 41 -7 74 -23 52 -25 74 -30 153 -32 115 -2 185 11 265 49 34 17
66 30 71 30 14 0 129 126 148 162 22 43 52 131 70 208 19 82 17 429 -3 570 -7
52 -16 118 -19 145 -10 88 -83 385 -104 425 -5 9 -10 56 -11 105 -2 105 -23
314 -43 440 -15 88 -73 281 -93 307 -5 7 -15 28 -23 46 -7 18 -36 57 -65 86
-43 45 -60 55 -98 61 -76 12 -166 -6 -251 -50 -45 -23 -114 -70 -126 -85 -3
-4 -10 -9 -17 -11 -6 -2 -61 -52 -122 -111 -130 -125 -227 -249 -296 -377
l-50 -92 -7 253 c-4 139 -9 267 -12 283 -37 209 -90 339 -155 382 -46 31 -68
29 -146 -11z m147 -66 c33 -35 77 -142 99 -239 21 -88 23 -124 24 -446 2 -286
5 -350 16 -350 7 0 19 19 25 42 30 104 125 275 216 389 58 72 228 240 311 306
49 39 145 89 192 100 80 19 96 20 138 14 156 -24 269 -337 292 -811 10 -219
16 -276 30 -281 18 -7 29 -40 59 -169 48 -213 60 -332 61 -590 0 -227 -1 -244
-24 -310 -13 -38 -33 -88 -44 -110 -24 -49 -130 -155 -153 -155 -10 0 -25 -6
-33 -13 -76 -65 -372 -76 -415 -16 -35 50 -384 61 -474 15 -18 -9 -59 -25 -92
-35 -81 -25 -305 -21 -525 9 -98 14 -221 23 -317 24 -177 3 -218 12 -357 80
-117 57 -251 188 -304 297 -50 101 -60 171 -53 357 12 293 106 581 241 741 91
108 136 129 245 118 24 -2 25 0 27 60 2 79 19 129 99 286 109 217 198 342 365
510 81 81 153 147 159 147 7 0 25 9 41 21 57 41 118 44 151 9z"/>
<path d="M1280 2377 c-81 -48 -214 -170 -258 -237 -9 -14 -30 -43 -48 -65 -17
-22 -38 -52 -45 -66 -124 -236 -143 -286 -118 -315 12 -14 14 -14 26 2 7 10
13 26 13 36 0 33 97 216 164 310 100 139 273 288 336 288 48 0 53 -18 48 -153
-5 -120 -8 -135 -69 -340 -22 -73 -22 -100 1 -105 11 -2 20 12 29 45 7 26 17
59 21 73 11 31 46 183 54 230 11 67 9 226 -3 263 -7 20 -21 42 -31 47 -29 16
-82 10 -120 -13z"/>
<path d="M2295 2231 c-176 -98 -381 -311 -401 -417 -6 -33 0 -54 16 -54 5 0
24 30 42 67 81 165 369 385 448 343 50 -27 97 -183 109 -367 4 -57 10 -105 13
-109 44 -44 32 249 -17 392 -22 64 -61 129 -90 148 -29 19 -82 18 -120 -3z"/>
<path d="M641 1243 c-91 -94 -123 -210 -82 -291 32 -63 53 -72 148 -68 84 4
127 20 164 64 10 11 23 24 30 28 8 5 24 30 37 57 35 75 26 175 -18 198 -60 31
-114 48 -168 54 l-64 7 -47 -49z"/>
<path d="M2073 1184 c-89 -40 -163 -144 -163 -228 0 -75 102 -161 216 -182 22
-3 45 -12 53 -18 8 -6 52 -11 100 -11 75 0 92 3 131 27 25 14 63 48 84 73 69
84 60 172 -28 257 -43 42 -112 78 -151 78 -12 0 -28 7 -35 15 -21 25 -145 18
-207 -11z"/>
<path d="M1233 1118 c-15 -24 -29 -168 -22 -233 8 -75 16 -88 78 -117 42 -20
62 -22 230 -22 164 -1 185 1 195 17 7 11 8 22 1 33 -8 13 -40 15 -190 17 -168
2 -183 4 -229 26 l-48 24 7 127 c6 123 0 161 -22 128z"/>
</g>
</svg>
